PathFileType	4	(X/Y/Z)	TVC_9_BWA2_walk_RCNL2025.trc
DataRate	CameraRate	NumFrames	NumMarkers	Units	OrigDataRate	OrigDataStartFrame	OrigNumFrames
100	100	5	27	mm	100	46	364
Frame#	Time	R_Shoulder			L_Shoulder			C7			J_Notch			R_Elbow			L_Elbow			R_Wrist			L_Wrist			R_Asis			L_Asis			R_Psis			L_Psis			Sacral			Thoracic			Sternum			R_Thigh_Lateral			R_Knee_Lateral			R_Shank_Lateral			R_Ankle_Lateral			R_Heel			R_Toe			L_Thigh_Lateral			L_Knee_Lateral			L_Shank_Lateral			L_Ankle_Lateral			L_Heel			L_Toe		
		X1	Y1	Z1	X2	Y2	Z2	X3	Y3	Z3	X4	Y4	Z4	X5	Y5	Z5	X6	Y6	Z6	X7	Y7	Z7	X8	Y8	Z8	X9	Y9	Z9	X10	Y10	Z10	X11	Y11	Z11	X12	Y12	Z12	X13	Y13	Z13	X14	Y14	Z14	X15	Y15	Z15	X16	Y16	Z16	X17	Y17	Z17	X18	Y18	Z18	X19	Y19	Z19	X20	Y20	Z20	X21	Y21	Z21	X22	Y22	Z22	X23	Y23	Z23	X24	Y24	Z24	X25	Y25	Z25	X26	Y26	Z26	X27	Y27	Z27
46	0.45000000	-2113.744385	1349.032715	249.441147	-2148.933350	1353.372314	-141.254776	-2187.799072	1418.481567	51.235653	-2034.912231	1320.630981	58.995140	-2072.265381	1057.695679	403.788849	-2235.831787	1021.978271	-205.946030	-1864.716858	932.216431	354.330002	-2213.145874	777.550751	-165.930313	-2093.178223	916.186462	224.062683	-2096.620605	908.546509	-86.492165	-2286.816895	934.738403	121.692146	-2287.203857	923.568176	24.577059	-2287.010376	929.153290	73.134603	-2283.506592	1141.455444	65.076958	-1981.572998	1127.204224	59.844696	-2216.662842	523.027893	276.122070	-2243.766113	445.338501	202.450134	-2288.172119	291.204193	243.707428	-2370.501465	80.099884	157.204407	-2425.460205	79.975983	95.401649	-2247.889893	40.798435	120.221420	-1999.792847	560.288513	-128.363235	-1961.752075	450.647888	-68.682327	-1923.286377	311.616974	-119.450531	-1877.386719	88.864319	-45.791416	-1911.447876	46.677551	16.812593	-1730.492065	104.160347	-39.240597
47	0.46000000	-2104.796387	1348.232300	247.931107	-2140.018311	1352.835938	-142.796082	-2178.867920	1417.800903	49.688614	-2025.855103	1320.103271	57.467442	-2064.051758	1056.938599	402.304871	-2226.320312	1021.361389	-207.975967	-1856.249451	931.354126	353.690567	-2203.503296	776.926056	-168.787827	-2083.954590	915.890869	222.796005	-2087.394287	907.966858	-87.840469	-2277.560303	934.055908	120.082695	-2277.779541	922.916077	22.934816	-2277.669922	928.485992	71.508756	-2274.293457	1140.727295	63.410763	-1972.388916	1126.746094	58.227489	-2209.797852	523.040588	275.711914	-2237.488770	445.484070	202.285217	-2283.830078	292.079712	244.007874	-2369.462158	81.907990	158.103806	-2424.650635	82.518463	96.489990	-2247.591553	40.882092	120.513863	-1989.850586	560.203308	-128.575211	-1953.719849	449.166595	-69.049477	-1919.029419	308.651489	-118.376427	-1878.371948	85.903633	-43.139992	-1913.129028	44.517532	19.871717	-1732.002930	98.761559	-36.860916
48	0.47000000	-2095.699707	1347.509155	246.318100	-2131.009521	1352.370728	-144.430344	-2169.824463	1417.202759	48.047649	-2016.687866	1319.662964	55.835217	-2056.064209	1056.152466	400.660522	-2216.525391	1020.736938	-210.087662	-1848.222961	930.052002	353.020569	-2191.482666	776.880432	-172.372536	-2074.632812	915.618225	221.478821	-2077.986572	907.518250	-89.176613	-2268.229004	933.470459	118.452126	-2268.284424	922.412964	21.240536	-2268.256714	927.941711	69.846331	-2264.982422	1140.088989	61.720894	-1963.033569	1126.415527	56.526043	-2202.756836	522.990906	275.171783	-2230.957520	445.615448	202.065094	-2279.392334	292.982422	244.198975	-2368.330566	83.829529	158.911957	-2423.704102	85.209541	97.460228	-2247.225586	40.991570	120.757355	-1980.178467	559.998108	-128.817352	-1945.976685	447.626251	-69.532066	-1915.475586	305.576233	-117.274109	-1879.738281	83.008156	-40.595314	-1915.166870	42.484268	22.833683	-1733.913208	93.377594	-34.621243
49	0.48000000	-2086.463379	1346.872681	244.600220	-2121.898438	1351.972656	-146.162842	-2160.672852	1416.691162	46.307674	-2007.417114	1319.312622	54.100628	-2048.300049	1055.362671	398.873871	-2206.450684	1020.102966	-212.272202	-1840.651428	928.320526	352.321548	-2177.790527	777.189026	-176.426758	-2065.225586	915.368286	220.115067	-2068.390869	907.197815	-90.481041	-2258.833252	932.986084	116.808586	-2258.732178	922.062378	19.501944	-2258.782715	927.524231	68.155265	-2255.581543	1139.545776	60.008732	-1953.512817	1126.213379	54.752285	-2195.482178	522.872437	274.498657	-2224.110596	445.722687	201.801727	-2274.818848	293.918884	244.286163	-2367.080811	85.879791	159.612381	-2422.582031	88.085815	98.296577	-2246.768066	41.123848	120.936417	-1970.980225	559.648193	-129.116913	-1938.502808	446.078094	-70.156921	-1912.397339	302.557434	-116.273178	-1881.091675	80.308792	-38.320087	-1917.132812	40.721775	25.519264	-1735.779785	88.200859	-32.728271
50	0.49000000	-2077.099609	1346.331299	242.776855	-2112.676270	1351.636353	-147.998245	-2151.419434	1416.269165	44.464214	-1998.051392	1319.053101	52.266479	-2040.757690	1054.595703	396.964844	-2196.099121	1019.457458	-214.520187	-1833.550720	926.176300	351.595367	-2163.263184	777.602966	-180.661110	-2055.746826	915.142395	218.708130	-2058.609375	907.000244	-91.737343	-2249.385010	932.604919	115.161293	-2249.138916	921.864868	17.729006	-2249.261963	927.234894	66.445149	-2246.102539	1139.101929	58.275562	-1943.838623	1126.136475	52.916798	-2187.912842	522.690491	273.699493	-2216.875977	445.793976	201.512268	-2270.050049	294.900116	244.281464	-2365.678711	88.080162	160.197632	-2421.236816	91.194389	98.993385	-2246.196289	41.272434	121.037582	-1962.381226	559.199951	-129.543610	-1931.234497	444.591370	-70.958328	-1909.471558	299.782593	-115.528358	-1882.108643	77.912247	-36.457134	-1918.690308	39.359676	27.767536	-1737.228638	83.355255	-31.341715
